<?xml version="1.0" standalone="no"?>
<!DOCTYPE svg PUBLIC "-//W3C//DTD SVG 20010904//EN"
 "http://www.w3.org/TR/2001/REC-SVG-20010904/DTD/svg10.dtd">
<svg version="1.0" xmlns="http://www.w3.org/2000/svg"
 width="200.000000pt" height="200.000000pt" viewBox="0 0 200.000000 200.000000"
 preserveAspectRatio="xMidYMid meet">

<g transform="translate(0.000000,200.000000) scale(0.100000,-0.100000)"
fill="#000000" stroke="none">
<path d="M0 1000 l0 -1000 1000 0 1000 0 0 1000 0 1000 -1000 0 -1000 0 0
-1000z m1034 393 c50 -38 56 -47 56 -79 0 -31 2 -35 15 -24 21 18 -4 63 -71
126 -39 36 -54 57 -54 77 0 25 6 21 76 -50 67 -67 75 -80 70 -105 -3 -15 -2
-28 2 -28 11 0 52 47 46 53 -3 3 9 15 25 27 25 17 29 25 21 40 -14 26 -13 33
5 26 8 -3 15 -2 15 3 0 10 87 -71 90 -84 1 -5 6 -18 11 -27 10 -18 2 -48 -12
-48 -5 0 -9 8 -9 18 0 14 -2 15 -10 2 -7 -12 -12 -12 -22 -2 -21 21 -38 14
-38 -19 0 -39 -14 -65 -44 -81 -13 -7 -46 -40 -75 -72 -53 -62 -63 -96 -39
-136 7 -10 9 -22 5 -26 -10 -10 -37 16 -37 37 0 10 -4 20 -9 24 -5 3 -12 18
-16 35 -6 25 -12 30 -53 37 -71 12 -93 5 -140 -40 -32 -31 -42 -48 -39 -64 3
-14 -1 -23 -9 -23 -20 0 -26 37 -10 62 8 13 18 44 21 70 l7 48 -30 -11 c-39
-13 -72 2 -72 34 0 31 18 47 52 47 18 0 28 5 28 15 0 19 -20 19 -55 1 -15 -8
-33 -12 -39 -10 -20 8 -47 61 -40 79 6 14 8 14 26 -2 11 -10 17 -25 14 -36 -4
-16 -1 -18 22 -12 72 17 80 17 91 -3 14 -26 -5 -50 -44 -54 -19 -2 -31 -9 -33
-20 -5 -27 30 -23 120 14 l78 32 -25 23 c-24 23 -31 43 -19 56 4 3 32 -10 63
-29 62 -39 66 -44 -46 54 -23 20 -31 34 -27 49 5 19 12 16 84 -38 81 -61 93
-77 84 -106 -5 -16 -4 -16 6 0 20 32 -5 68 -91 130 -77 56 -104 91 -93 121 4
11 18 5 59 -27 29 -23 78 -61 109 -84z m146 -375 c25 -20 25 -28 1 -28 -14 0
-27 16 -46 56 -26 54 -26 56 -8 82 l17 27 8 -60 c5 -41 14 -65 28 -77z m-271
57 c-7 -23 -6 -41 1 -55 8 -16 8 -20 -4 -20 -18 0 -42 70 -33 94 4 9 15 16 26
16 17 0 18 -4 10 -35z m-192 -194 c-5 -38 -4 -39 26 -37 25 1 33 -4 41 -26 14
-40 -14 -78 -58 -78 l-35 0 -3 85 c-2 69 0 85 12 89 8 2 17 4 19 5 2 0 1 -16
-2 -38z m243 14 c0 -8 -7 -15 -15 -15 -16 0 -20 12 -8 23 11 12 23 8 23 -8z
m170 0 c0 -8 -7 -15 -15 -15 -16 0 -20 12 -8 23 11 12 23 8 23 -8z m-470 -55
c0 -6 -11 -8 -25 -4 -18 4 -25 2 -25 -8 0 -8 11 -21 25 -28 27 -15 31 -30 13
-48 -14 -14 -68 -16 -68 -3 0 15 18 22 22 9 3 -7 12 -9 24 -4 18 7 17 9 -8 28
-27 19 -36 47 -21 61 10 11 63 8 63 -3z m183 -1 c-11 -11 -6 -56 7 -64 4 -3
13 9 20 26 11 26 11 32 -1 40 -10 6 -6 9 14 9 23 0 26 -3 17 -17 -5 -10 -16
-35 -24 -55 -20 -50 -39 -48 -54 5 -7 23 -15 48 -18 55 -4 8 4 12 22 12 20 0
25 -3 17 -11z m119 -44 c3 -52 2 -55 -21 -55 -20 0 -21 2 -11 15 8 10 10 29 6
55 -5 31 -3 40 8 40 10 0 15 -16 18 -55z m108 45 c0 -6 -11 -8 -25 -4 -18 4
-25 2 -25 -8 0 -8 11 -21 25 -28 27 -15 31 -30 13 -48 -18 -18 -68 -15 -68 3
0 18 17 20 22 3 3 -7 12 -9 24 -4 18 7 17 9 -8 28 -27 19 -36 47 -21 61 10 11
63 8 63 -3z m62 -45 c3 -52 2 -55 -21 -55 -19 0 -21 3 -11 14 6 8 11 30 10 48
-3 43 -2 48 9 48 5 0 11 -25 13 -55z m128 36 c14 -28 12 -52 -7 -73 -18 -21
-53 -24 -71 -6 -16 16 -16 70 0 86 19 19 66 15 78 -7z m70 9 c0 -6 7 -6 19 1
10 7 26 9 36 5 14 -5 17 -14 12 -45 -3 -22 0 -44 6 -50 8 -8 4 -11 -14 -11
-23 0 -24 3 -20 46 3 40 1 45 -15 42 -15 -3 -19 -12 -19 -46 0 -38 -2 -42 -24
-42 -20 0 -21 2 -11 15 8 9 11 30 7 55 -4 30 -2 40 9 40 8 0 14 -5 14 -10z"/>
<path d="M714 816 c-11 -28 0 -61 21 -61 16 0 20 7 20 35 0 25 -5 36 -18 38
-9 2 -20 -3 -23 -12z"/>
<path d="M1202 828 c-14 -14 -15 -47 -3 -67 14 -23 41 -5 41 27 0 36 -21 57
-38 40z"/>
</g>
</svg>
